<svg width="48" height="48" viewBox="0 0 48 48" fill="none" xmlns="http://www.w3.org/2000/svg">
<path d="M15.3 28.3C14.7333 28.3 14.2583 28.1083 13.875 27.725C13.4917 27.3417 13.3 26.8667 13.3 26.3C13.3 25.7333 13.4917 25.2583 13.875 24.875C14.2583 24.4917 14.7333 24.3 15.3 24.3C15.8667 24.3 16.3417 24.4917 16.725 24.875C17.1083 25.2583 17.3 25.7333 17.3 26.3C17.3 26.8667 17.1083 27.3417 16.725 27.725C16.3417 28.1083 15.8667 28.3 15.3 28.3ZM24.15 28.3C23.5833 28.3 23.1083 28.1083 22.725 27.725C22.3417 27.3417 22.15 26.8667 22.15 26.3C22.15 25.7333 22.3417 25.2583 22.725 24.875C23.1083 24.4917 23.5833 24.3 24.15 24.3C24.7167 24.3 25.1917 24.4917 25.575 24.875C25.9583 25.2583 26.15 25.7333 26.15 26.3C26.15 26.8667 25.9583 27.3417 25.575 27.725C25.1917 28.1083 24.7167 28.3 24.15 28.3ZM32.65 28.3C32.0833 28.3 31.6083 28.1083 31.225 27.725C30.8417 27.3417 30.65 26.8667 30.65 26.3C30.65 25.7333 30.8417 25.2583 31.225 24.875C31.6083 24.4917 32.0833 24.3 32.65 24.3C33.2167 24.3 33.6917 24.4917 34.075 24.875C34.4583 25.2583 34.65 25.7333 34.65 26.3C34.65 26.8667 34.4583 27.3417 34.075 27.725C33.6917 28.1083 33.2167 28.3 32.65 28.3ZM9 44C8.2 44 7.5 43.7 6.9 43.1C6.3 42.5 6 41.8 6 41V10C6 9.2 6.3 8.5 6.9 7.9C7.5 7.3 8.2 7 9 7H12.25V4H15.5V7H32.5V4H35.75V7H39C39.8 7 40.5 7.3 41.1 7.9C41.7 8.5 42 9.2 42 10V41C42 41.8 41.7 42.5 41.1 43.1C40.5 43.7 39.8 44 39 44H9ZM9 41H39V19.5H9V41ZM9 16.5H39V10H9V16.5Z" fill="#19FF44"/>
</svg>
