<svg width="16" height="12" viewBox="0 0 16 12" fill="none" xmlns="http://www.w3.org/2000/svg">
<path d="M1.625 12C1.325 12 1.0625 11.8875 0.8375 11.6625C0.6125 11.4375 0.5 11.175 0.5 10.875V1.125C0.5 0.825 0.6125 0.5625 0.8375 0.3375C1.0625 0.1125 1.325 0 1.625 0H14.375C14.675 0 14.9375 0.1125 15.1625 0.3375C15.3875 0.5625 15.5 0.825 15.5 1.125V10.875C15.5 11.175 15.3875 11.4375 15.1625 11.6625C14.9375 11.8875 14.675 12 14.375 12H1.625ZM8 6.3375L1.625 2.15625V10.875H14.375V2.15625L8 6.3375ZM8 5.2125L14.3 1.125H1.71875L8 5.2125ZM1.625 2.15625V1.125V10.875V2.15625Z" fill="#19FF44"/>
</svg>
