<svg width="31" height="30" viewBox="0 0 31 30" fill="none" xmlns="http://www.w3.org/2000/svg">
<path d="M13.8958 1.06249C7.1875 1.79165 1.79166 7.18749 1.06249 13.75C0.187494 21.0417 4.70833 27.3125 11.125 29.3542V26C11.125 26 10.5417 26.1458 9.8125 26.1458C7.77083 26.1458 6.89583 24.3958 6.75 23.375C6.60416 22.7917 6.3125 22.3542 5.875 21.9167C5.4375 21.7708 5.29166 21.7708 5.29166 21.625C5.29166 21.3333 5.72916 21.3333 5.875 21.3333C6.75 21.3333 7.47916 22.3542 7.77083 22.7917C8.5 23.9583 9.375 24.25 9.8125 24.25C10.3958 24.25 10.8333 24.1042 11.125 23.9583C11.2708 22.9375 11.7083 21.9167 12.5833 21.3333C9.22916 20.6042 6.75 18.7083 6.75 15.5C6.75 13.8958 7.47916 12.2917 8.5 11.125C8.35416 10.8333 8.20833 10.1042 8.20833 9.08332C8.20833 8.49999 8.20833 7.62499 8.64583 6.74999C8.64583 6.74999 10.6875 6.74999 12.7292 8.64582C13.4583 8.35416 14.4792 8.20832 15.5 8.20832C16.5208 8.20832 17.5417 8.35416 18.4167 8.64582C20.3125 6.74999 22.5 6.74999 22.5 6.74999C22.7917 7.62499 22.7917 8.49999 22.7917 9.08332C22.7917 10.25 22.6458 10.8333 22.5 11.125C23.5208 12.2917 24.25 13.75 24.25 15.5C24.25 18.7083 21.7708 20.6042 18.4167 21.3333C19.2917 22.0625 19.875 23.375 19.875 24.6875V29.5C25.8542 27.6042 30.0833 22.0625 30.0833 15.6458C30.0833 6.89582 22.6458 0.0416532 13.8958 1.06249Z" fill="white"/>
</svg>
