<svg width="12" height="12" viewBox="0 0 12 12" fill="none" xmlns="http://www.w3.org/2000/svg">
<path d="M6 5.98125C5.175 5.98125 4.5 5.71875 3.975 5.19375C3.45 4.66875 3.1875 3.99375 3.1875 3.16875C3.1875 2.34375 3.45 1.66875 3.975 1.14375C4.5 0.618751 5.175 0.356251 6 0.356251C6.825 0.356251 7.5 0.618751 8.025 1.14375C8.55 1.66875 8.8125 2.34375 8.8125 3.16875C8.8125 3.99375 8.55 4.66875 8.025 5.19375C7.5 5.71875 6.825 5.98125 6 5.98125ZM0 12V10.2375C0 9.7625 0.11875 9.35625 0.35625 9.01875C0.59375 8.68125 0.9 8.425 1.275 8.25C2.1125 7.875 2.91562 7.59375 3.68437 7.40625C4.45312 7.21875 5.225 7.125 6 7.125C6.775 7.125 7.54375 7.22188 8.30625 7.41563C9.06875 7.60938 9.86826 7.88871 10.7048 8.25364C11.096 8.43021 11.4097 8.68625 11.6458 9.02175C11.8819 9.35725 12 9.7625 12 10.2375V12H0ZM1.125 10.875H10.875V10.2375C10.875 10.0375 10.8156 9.84688 10.6969 9.66563C10.5781 9.48438 10.4313 9.35 10.2563 9.2625C9.45625 8.875 8.725 8.60938 8.0625 8.46563C7.4 8.32188 6.7125 8.25 6 8.25C5.2875 8.25 4.59375 8.32188 3.91875 8.46563C3.24375 8.60938 2.5125 8.875 1.725 9.2625C1.55 9.35 1.40625 9.48438 1.29375 9.66563C1.18125 9.84688 1.125 10.0375 1.125 10.2375V10.875ZM6 4.85625C6.4875 4.85625 6.89063 4.69688 7.20938 4.37813C7.52813 4.05938 7.6875 3.65625 7.6875 3.16875C7.6875 2.68125 7.52813 2.27813 7.20938 1.95938C6.89063 1.64063 6.4875 1.48125 6 1.48125C5.5125 1.48125 5.10938 1.64063 4.79063 1.95938C4.47188 2.27813 4.3125 2.68125 4.3125 3.16875C4.3125 3.65625 4.47188 4.05938 4.79063 4.37813C5.10938 4.69688 5.5125 4.85625 6 4.85625Z" fill="#19FF44"/>
</svg>
