<svg width="77" height="78" viewBox="0 0 77 78" fill="none" xmlns="http://www.w3.org/2000/svg">
<path d="M0.883286 6.24536C0.883286 3.22963 3.39 0.783429 6.48234 0.783429H71.0515C74.1438 0.783429 76.6506 3.22963 76.6506 6.24536V71.5695C76.6506 74.5862 74.1438 77.0314 71.0515 77.0314H6.48234C3.39 77.0314 0.883286 74.5862 0.883286 71.5695V6.24536Z" fill="#006699"/>
<path fill-rule="evenodd" clip-rule="evenodd" d="M23.8507 64.6109V30.1807H12.4067V64.6109H23.8507ZM18.1287 25.4798C22.1194 25.4798 24.6033 22.8359 24.6033 19.5319C24.5289 16.1535 22.1194 13.583 18.2044 13.583C14.2897 13.583 11.7302 16.1535 11.7302 19.5319C11.7302 22.8359 14.2136 25.4798 18.0541 25.4798H18.1287Z" fill="white"/>
<path fill-rule="evenodd" clip-rule="evenodd" d="M30.183 64.6109H41.6269V45.3836C41.6269 44.3546 41.7012 43.3266 42.0034 42.591C42.8307 40.535 44.7137 38.4057 47.8752 38.4057C52.0162 38.4057 53.6727 41.563 53.6727 46.1915V64.6109H65.1156V44.8691C65.1156 34.2937 59.4698 29.3727 51.9406 29.3727C45.7669 29.3727 43.0566 32.8235 41.5508 35.1739H41.6272V30.1807H30.1833C30.3335 33.4114 30.183 64.6109 30.183 64.6109Z" fill="white"/>
</svg>
