<svg width="12" height="16" viewBox="0 0 12 16" fill="none" xmlns="http://www.w3.org/2000/svg">
<path d="M6.00167 7.8125C6.36306 7.8125 6.67188 7.68382 6.92813 7.42646C7.18438 7.16911 7.3125 6.85973 7.3125 6.49833C7.3125 6.13694 7.18382 5.82813 6.92646 5.57188C6.66911 5.31563 6.35973 5.1875 5.99833 5.1875C5.63694 5.1875 5.32813 5.31618 5.07188 5.57354C4.81563 5.83089 4.6875 6.14027 4.6875 6.50167C4.6875 6.86306 4.81618 7.17188 5.07354 7.42813C5.33089 7.68438 5.64027 7.8125 6.00167 7.8125ZM6 14.0188C7.6625 12.5063 8.89063 11.1344 9.68438 9.90313C10.4781 8.67188 10.875 7.5875 10.875 6.65C10.875 5.17763 10.4044 3.97203 9.46328 3.03322C8.52214 2.09441 7.36771 1.625 6 1.625C4.63229 1.625 3.47786 2.09441 2.53672 3.03322C1.59557 3.97203 1.125 5.17763 1.125 6.65C1.125 7.5875 1.53125 8.67188 2.34375 9.90313C3.15625 11.1344 4.375 12.5063 6 14.0188ZM6 15.5C3.9875 13.7875 2.48438 12.1969 1.49063 10.7281C0.496875 9.25938 0 7.9 0 6.65C0 4.775 0.603125 3.28125 1.80938 2.16875C3.01563 1.05625 4.4125 0.5 6 0.5C7.5875 0.5 8.98438 1.05625 10.1906 2.16875C11.3969 3.28125 12 4.775 12 6.65C12 7.9 11.5031 9.25938 10.5094 10.7281C9.51563 12.1969 8.0125 13.7875 6 15.5Z" fill="#19FF44"/>
</svg>
