<svg width="50" height="50" viewBox="0 0 50 50" fill="none" xmlns="http://www.w3.org/2000/svg">
<rect width="50" height="50" rx="25" fill="#8BC34A"/>
<path d="M24.5 45.5V30.05H23.5C21.3667 30.05 19.3583 29.6417 17.475 28.825C15.5917 28.0083 13.9167 26.85 12.45 25.35C10.9833 23.85 9.875 22.1167 9.125 20.15C8.375 18.1833 8 16.1333 8 14V10H11.9161C13.972 10 15.95 10.4083 17.85 11.225C19.75 12.0417 21.45 13.2 22.95 14.7C24.05 15.8333 24.9583 17.1 25.675 18.5C26.3917 19.9 26.9 21.3833 27.2 22.95C27.4549 22.5533 27.7353 22.1708 28.0412 21.8025C28.3471 21.4342 28.6667 21.0667 29 20.7C30.5 19.2 32.2 18.0417 34.1 17.225C36 16.4083 37.9945 16 40.0834 16H44V20C44 22.1333 43.6004 24.1833 42.8011 26.15C42.0018 28.1167 40.8681 29.85 39.4 31.35C37.9 32.85 36.2073 34 34.322 34.8C32.4366 35.6 30.4626 36 28.4 36H27.5V45.5H24.5ZM24.55 27C24.55 24.9667 24.2167 23.075 23.55 21.325C22.8833 19.575 21.9667 18.0917 20.8 16.875C19.6333 15.6583 18.2 14.7083 16.5 14.025C14.8 13.3417 12.9667 13 11 13C11 15.1 11.3083 17.025 11.925 18.775C12.5417 20.525 13.4333 22.0167 14.6 23.25C16 24.75 17.5083 25.75 19.125 26.25C20.7417 26.75 22.55 27 24.55 27ZM27.5 33C29.5 33 31.35 32.675 33.05 32.025C34.75 31.375 36.1833 30.4417 37.35 29.225C38.5167 28.0083 39.4167 26.525 40.05 24.775C40.6833 23.025 41 21.1 41 19C39 19 37.15 19.3417 35.45 20.025C33.75 20.7083 32.3167 21.65 31.15 22.85C29.7167 24.35 28.75 25.9167 28.25 27.55C27.75 29.1833 27.5 31 27.5 33Z" fill="#172C00"/>
<path d="M29 31C29 31 30 27.5 32.5 25C35 22.5 37.5 22 37.5 22" stroke="#172C00" stroke-linecap="round"/>
<path d="M14.2134 17C14.2134 17 17.6872 18.0876 20.1236 20.6495C22.5601 23.2115 22.9972 25.7233 22.9972 25.7233" stroke="#172C00" stroke-linecap="round"/>
</svg>
