<svg width="14" height="14" viewBox="0 0 14 14" fill="none" xmlns="http://www.w3.org/2000/svg">
<path d="M12.9063 13.75C11.3813 13.75 9.86563 13.375 8.35938 12.625C6.85313 11.875 5.5 10.9 4.3 9.7C3.1 8.5 2.125 7.14688 1.375 5.64063C0.625 4.13438 0.25 2.61875 0.25 1.09375C0.25 0.852675 0.330356 0.651781 0.491069 0.491069C0.651781 0.330356 0.852675 0.25 1.09375 0.25H3.71875C3.88889 0.25 4.0408 0.309375 4.17449 0.428125C4.30816 0.546875 4.39375 0.70625 4.43125 0.90625L4.9375 3.26875C4.9625 3.44375 4.95938 3.60313 4.92813 3.74688C4.89688 3.89063 4.83125 4.0125 4.73125 4.1125L2.85625 6.00625C3.55625 7.16875 4.34063 8.18125 5.20938 9.04375C6.07813 9.90625 7.0625 10.6375 8.1625 11.2375L9.94375 9.4C10.0688 9.2625 10.2125 9.16563 10.375 9.10938C10.5375 9.05313 10.7 9.04375 10.8625 9.08125L13.0938 9.56875C13.2852 9.61094 13.4424 9.70586 13.5654 9.85353C13.6885 10.0012 13.75 10.175 13.75 10.375V12.9063C13.75 13.1473 13.6696 13.3482 13.5089 13.5089C13.3482 13.6696 13.1473 13.75 12.9063 13.75ZM2.29375 4.975L3.8125 3.4375L3.38125 1.375H1.375C1.375 1.8625 1.45 2.39688 1.6 2.97813C1.75 3.55938 1.98125 4.225 2.29375 4.975ZM9.2125 11.7813C9.725 12.0188 10.2813 12.2125 10.8813 12.3625C11.4813 12.5125 12.0625 12.6 12.625 12.625V10.6188L10.6938 10.225L9.2125 11.7813Z" fill="#19FF44"/>
</svg>
